<svg width="110" height="59" viewBox="0 0 110 59" fill="none" xmlns="http://www.w3.org/2000/svg">
  <g clip-path="url(#clip0)">
    <path d="M8.95178 51.4705H5.02908V34.7831H0.978378V31.3724H12.9933V34.7831H8.95178V51.4705Z" fill="black"/>
    <path d="M16.2028 45.527C16.2028 47.182 16.8429 49.0474 18.7905 49.0474C20.0158 49.0474 20.793 48.2976 21.2959 47.2643L24.734 47.8221C23.8288 50.4372 21.5337 51.9002 18.7905 51.9002C14.7398 51.9002 12.2618 49.0199 12.2618 45.0515C12.2618 41.0831 14.3649 37.9651 18.6076 37.9651C22.8961 37.9651 24.8163 41.138 24.8163 45.079V45.5362H16.2028V45.527ZM21.2959 43.2045C21.113 41.8695 20.2535 40.5619 18.818 40.5619C17.3275 40.5619 16.4954 41.8421 16.3125 43.2045H21.2959Z" fill="black"/>
    <path d="M36.8587 42.3816C36.0632 41.5861 35.2585 41.1015 34.1155 41.1015C32.0125 41.1015 30.8146 43.0766 30.8146 44.9876C30.8146 47.0358 32.1222 48.7457 34.2527 48.7457C35.2677 48.7457 36.2003 48.2428 36.8678 47.493V51.0865C35.8529 51.6443 34.7922 51.8821 33.6401 51.8821C29.7722 51.8821 27.0291 48.7092 27.0291 44.9511C27.0291 41.0649 29.882 37.9469 33.8229 37.9469C34.8653 37.9469 35.9534 38.2121 36.8587 38.7698V42.3816Z" fill="black"/>
    <path d="M43.6068 31.3724V39.4738H43.6617C44.4297 38.404 45.7373 37.956 47.0723 37.956C50.5927 37.956 51.5985 40.4339 51.5985 43.4697V51.4614H47.8678V44.5304C47.8678 42.9576 47.9501 40.9369 45.8379 40.9369C43.6251 40.9369 43.5977 43.4148 43.5977 44.9876V51.4614H39.867V31.3724H43.6068Z" fill="black"/>
    <path d="M60.0657 31.3724H64.9393C68.67 31.3724 70.9651 32.8354 70.9651 36.8313C70.9651 38.2669 70.4622 39.9219 69.2095 40.7174C71.5777 41.1472 72.6475 43.5428 72.6475 45.7556C72.6475 49.6966 69.877 51.4614 66.2286 51.4614H60.0748V31.3724H60.0657ZM63.9884 39.739H64.473C66.3932 39.739 67.3258 39.1812 67.3258 37.0965C67.3258 35.0482 66.1554 34.5088 64.5004 34.5088H63.9975V39.739H63.9884ZM63.9884 48.3251H64.8113C66.9144 48.3251 68.7249 48.0599 68.7249 45.4448C68.7249 42.8296 66.5943 42.729 64.6193 42.729H63.9792V48.3251H63.9884Z" fill="black"/>
    <path d="M78.5819 51.4705H74.8512V31.3724H78.5819V51.4705Z" fill="black"/>
    <path d="M94.7847 44.9418C94.7847 48.9925 92.0141 51.9002 87.9086 51.9002C83.803 51.9002 81.0324 48.9925 81.0324 44.9418C81.0324 40.8637 83.8304 37.9559 87.9086 37.9559C91.9867 37.9559 94.7847 40.8637 94.7847 44.9418ZM84.8179 44.9418C84.8179 46.6974 85.9884 48.5902 87.9086 48.5902C89.8288 48.5902 90.9992 46.6974 90.9992 44.9418C90.9992 43.1313 89.8288 41.266 87.9086 41.266C85.9975 41.2568 84.8179 43.1222 84.8179 44.9418Z" fill="black"/>
    <path d="M110 50.6658C110 54.9268 108.564 58.4472 103.654 58.4472C100.454 58.4472 97.2352 56.4996 97.0432 53.0158H100.984C101.167 54.4056 102.155 55.3109 103.572 55.3109C106.214 55.3109 106.26 52.9884 106.26 51.0224V50.1721H106.205C105.41 51.2419 104.02 51.9002 102.63 51.9002C98.7897 51.9002 96.7415 48.5445 96.7415 45.0241C96.7415 41.4306 98.9268 37.9651 102.813 37.9651C104.121 37.9651 105.456 38.6326 106.196 39.6475H106.251V38.3948H109.982V50.6658H110ZM106.717 44.9418C106.717 43.1862 105.547 41.266 103.627 41.266C101.707 41.266 100.536 43.1862 100.536 44.9418C100.536 46.6974 101.707 48.5902 103.627 48.5902C105.547 48.5902 106.717 46.6974 106.717 44.9418Z" fill="black"/>
    <path d="M27.212 1.72818L28.7116 12.0241H26.7456L25.9501 5.79717H25.9227L23.6459 12.1521H22.9692L20.7747 5.79717H20.7473L19.8603 12.0241H17.8944L19.586 1.72818H20.9667L23.4447 8.33915L25.813 1.72818H27.212ZM36.2826 8.75977C36.2826 10.7805 34.9019 12.2344 32.8537 12.2344C30.8055 12.2344 29.4248 10.7805 29.4248 8.75977C29.4248 6.72984 30.8238 5.27598 32.8537 5.27598C34.8836 5.27598 36.2826 6.72984 36.2826 8.75977ZM34.399 8.75977C34.399 7.85453 33.8138 6.92186 32.8537 6.92186C31.8936 6.92186 31.3084 7.85453 31.3084 8.75977C31.3084 9.63757 31.8936 10.5794 32.8537 10.5794C33.8138 10.5885 34.399 9.63757 34.399 8.75977ZM41.074 5.27598C40.4065 5.27598 39.7573 5.50457 39.3732 6.08978H39.3458V5.49543H37.4805V12.0241H39.3458V8.7872C39.3458 8.00083 39.3641 6.76642 40.4613 6.76642C41.5129 6.76642 41.4763 7.78138 41.4763 8.5586V12.015H43.3416V8.02826C43.3325 6.51953 42.8296 5.27598 41.074 5.27598ZM50.7847 8.83292V9.05237H46.4871C46.4871 9.87531 46.8071 10.808 47.7764 10.808C48.389 10.808 48.7731 10.4331 49.0291 9.92103L50.7481 10.1953C50.3001 11.5029 49.148 12.2344 47.7855 12.2344C45.7648 12.2344 44.5303 10.7988 44.5303 8.81463C44.5303 6.83042 45.5819 5.27598 47.6941 5.27598C49.8337 5.27598 50.7847 6.85785 50.7847 8.83292ZM49.0291 7.90025C48.9377 7.23275 48.5079 6.58354 47.7947 6.58354C47.054 6.58354 46.6334 7.22361 46.542 7.90025H49.0291ZM54.7531 9.19867L53.1987 5.48628H51.0864L53.8662 11.0183L51.7082 15.4988H53.7564L58.5021 5.48628H56.4264L54.7531 9.19867ZM73.251 8.75977C73.251 10.7805 71.8703 12.2344 69.8221 12.2344C67.7739 12.2344 66.3932 10.7805 66.3932 8.75977C66.3932 6.72984 67.7922 5.27598 69.8221 5.27598C71.8612 5.27598 73.251 6.72984 73.251 8.75977ZM71.3674 8.75977C71.3674 7.85453 70.7822 6.92186 69.8221 6.92186C68.862 6.92186 68.2768 7.85453 68.2768 8.75977C68.2768 9.63757 68.862 10.5794 69.8221 10.5794C70.7822 10.5885 71.3674 9.63757 71.3674 8.75977ZM76.2045 6.17207H76.177V5.49543H74.3117V12.0241H76.177V9.0798C76.177 8.06484 76.3051 6.92186 77.6035 6.92186C77.8778 6.92186 78.1521 7.00416 78.3716 7.1596L78.6002 5.43142C78.3624 5.33998 78.0973 5.27598 77.8321 5.27598C77.1372 5.27598 76.5794 5.59601 76.2045 6.17207ZM95.3608 5.49543H97.1987V12.0241H95.3608V11.4298H95.3333C94.931 11.951 94.2452 12.2436 93.5686 12.2436C91.6484 12.2436 90.5603 10.4971 90.5603 8.73234C90.5603 7.00416 91.6667 5.28512 93.5411 5.28512C94.2178 5.28512 94.9127 5.57772 95.3608 6.10806V5.49543ZM95.5528 8.75062C95.5528 7.87282 94.9584 6.93101 93.9983 6.93101C93.0382 6.93101 92.453 7.87282 92.453 8.75062C92.453 9.62843 93.0382 10.5885 93.9983 10.5885C94.9493 10.5885 95.5528 9.62843 95.5528 8.75062ZM100.628 6.17207H100.6V5.49543H98.7348V12.0241H100.6V9.0798C100.6 8.06484 100.737 6.92186 102.027 6.92186C102.31 6.92186 102.575 7.00416 102.795 7.1596L103.023 5.43142C102.786 5.33998 102.52 5.27598 102.255 5.27598C101.56 5.27598 101.002 5.59601 100.628 6.17207ZM110 1.99335V12.0241H108.135V11.4115H108.107C107.723 11.9418 107.028 12.2344 106.352 12.2344C104.431 12.2344 103.343 10.4879 103.343 8.72319C103.343 6.99501 104.45 5.27598 106.324 5.27598C107.001 5.27598 107.696 5.56858 108.107 6.08978H108.135V1.99335H110ZM108.327 8.75062C108.327 7.87282 107.741 6.93101 106.781 6.93101C105.821 6.93101 105.236 7.87282 105.236 8.75062C105.236 9.62843 105.821 10.5885 106.781 10.5885C107.741 10.5885 108.327 9.62843 108.327 8.75062ZM60.9435 12.0241H62.9002V7.60765H65.7348V5.9069H62.9002V3.6941H65.9177V1.99335H60.9435V12.0241ZM93.2394 3.86783C93.2303 3.86783 93.3948 2.03907 93.3948 2.03907C93.0108 2.03907 92.6359 2.08479 92.2702 2.18537C90.7066 2.57855 89.4904 3.68495 88.6492 5.01995C88.0366 5.99834 87.5794 7.07731 87.0948 8.12884C87.0308 8.266 86.9668 8.40316 86.9119 8.53117C86.8753 8.62261 86.8113 8.73234 86.7473 8.86035L85.266 5.29426H84.2327L82.724 8.95179L81.2793 5.50457H79.2494L82.2577 12.1704H83.2086L84.7631 8.19285L86.1621 12.1704C86.4547 12.1704 87.1039 12.1704 87.1039 12.1704C87.1039 12.1704 87.1222 12.1338 87.1313 12.1155C87.3965 11.5578 88.9692 8.05569 89.591 6.83957C89.8653 6.30923 90.2311 5.68745 90.606 5.23026C91.2918 4.39817 92.2427 3.83125 93.2394 3.86783ZM10.6342 8.98836C10.2685 8.99751 9.92103 8.82377 9.71072 8.52203L8.50374 6.80299L7.57107 9.52785C7.44306 9.90274 7.11388 10.1771 6.72984 10.2502C6.33666 10.3142 5.94347 10.1679 5.69659 9.84788L4.87365 8.80549L4.2793 10.7257C4.133 11.192 3.70324 11.4846 3.24605 11.4846C3.13633 11.4846 3.0266 11.4663 2.92602 11.4389C2.34996 11.2652 2.02993 10.6525 2.2128 10.0765L3.41978 6.19036C3.53865 5.80632 3.85869 5.52286 4.26101 5.44971C4.6542 5.37656 5.05653 5.532 5.30341 5.84289L6.16293 6.94015L7.14131 4.07814C7.26933 3.6941 7.60765 3.41064 8.01912 3.35578C8.42145 3.30091 8.82377 3.47465 9.06151 3.81297L10.5428 5.93433L12.5453 2.67914C11.2469 1.09726 9.28096 0.100582 7.08645 0.100582C3.1729 0.100582 0 3.27348 0 7.18703C0 11.1006 3.1729 14.2735 7.08645 14.2735C11 14.2735 14.1729 11.1006 14.1729 7.18703C14.1729 6.36409 14.0266 5.56858 13.7706 4.82793L11.5303 8.47631C11.3383 8.7872 11 8.97922 10.6342 8.98836ZM14.6484 0C13.8712 0 13.2402 0.630923 13.2402 1.40815C13.2402 2.18537 13.8712 2.81629 14.6484 2.81629C15.4256 2.81629 16.0565 2.18537 16.0565 1.40815C16.0565 0.630923 15.4256 0 14.6484 0Z" fill="black"/>
  </g>
  <defs>
    <clipPath id="clip0">
      <rect width="110" height="58.4472" fill="white"/>
    </clipPath>
  </defs>
</svg>
